<mxfile host="Electron" agent="Mozilla/5.0 (Windows NT 10.0; Win64; x64) AppleWebKit/537.36 (KHTML, like Gecko) draw.io/26.0.4 Chrome/128.0.6613.186 Electron/32.2.5 Safari/537.36" version="26.0.4">
  <diagram name="Page-1" id="FJI0_MUwDzV1U5iDKcVD">
    <mxGraphModel dx="500" dy="296" grid="0" gridSize="10" guides="1" tooltips="1" connect="1" arrows="1" fold="1" page="1" pageScale="1" pageWidth="850" pageHeight="1100" background="none" math="0" shadow="0" adaptiveColors="none">
      <root>
        <mxCell id="0" />
        <mxCell id="1" parent="0" />
        <mxCell id="R6XHl-7MchF-aiPk_n8q-2" value="&lt;strong&gt;Donor&lt;/strong&gt;" style="rounded=1;arcSize=10;whiteSpace=wrap;html=1;align=center;labelBackgroundColor=none;" parent="1" vertex="1">
          <mxGeometry x="360" y="190" width="100" height="40" as="geometry" />
        </mxCell>
        <mxCell id="R6XHl-7MchF-aiPk_n8q-3" value="&lt;strong&gt;Donation&lt;/strong&gt;" style="rounded=1;arcSize=10;whiteSpace=wrap;html=1;align=center;labelBackgroundColor=none;" parent="1" vertex="1">
          <mxGeometry x="180" y="190" width="100" height="40" as="geometry" />
        </mxCell>
        <mxCell id="R6XHl-7MchF-aiPk_n8q-4" value="&lt;strong&gt;Event&lt;/strong&gt;" style="rounded=1;arcSize=10;whiteSpace=wrap;html=1;align=center;labelBackgroundColor=none;" parent="1" vertex="1">
          <mxGeometry x="360" y="70" width="100" height="40" as="geometry" />
        </mxCell>
        <mxCell id="R6XHl-7MchF-aiPk_n8q-9" value="" style="fontSize=12;html=1;endArrow=ERoneToMany;rounded=1;startArrow=ERmandOne;startFill=0;exitX=0;exitY=0.5;exitDx=0;exitDy=0;endFill=0;labelBackgroundColor=none;fontColor=default;" parent="1" source="R6XHl-7MchF-aiPk_n8q-2" edge="1">
          <mxGeometry width="100" height="100" relative="1" as="geometry">
            <mxPoint x="350" y="220" as="sourcePoint" />
            <mxPoint x="280" y="209.5" as="targetPoint" />
            <Array as="points">
              <mxPoint x="280" y="209.5" />
            </Array>
          </mxGeometry>
        </mxCell>
        <mxCell id="R6XHl-7MchF-aiPk_n8q-19" value="&lt;span style=&quot;background-color: light-dark(#ffffff, var(--ge-dark-color, #121212));&quot;&gt;Makes&lt;/span&gt;" style="edgeLabel;html=1;align=center;verticalAlign=middle;resizable=0;points=[];labelBackgroundColor=none;rounded=1;" parent="R6XHl-7MchF-aiPk_n8q-9" vertex="1" connectable="0">
          <mxGeometry x="-0.0597" y="-2" relative="1" as="geometry">
            <mxPoint y="2" as="offset" />
          </mxGeometry>
        </mxCell>
        <mxCell id="R6XHl-7MchF-aiPk_n8q-10" value="" style="fontSize=12;html=1;endArrow=ERoneToMany;rounded=1;exitX=0.5;exitY=1;exitDx=0;exitDy=0;entryX=0.5;entryY=0;entryDx=0;entryDy=0;startArrow=ERoneToMany;startFill=0;endFill=0;labelBackgroundColor=none;fontColor=default;" parent="1" source="R6XHl-7MchF-aiPk_n8q-4" target="R6XHl-7MchF-aiPk_n8q-2" edge="1">
          <mxGeometry width="100" height="100" relative="1" as="geometry">
            <mxPoint x="400" y="110" as="sourcePoint" />
            <mxPoint x="400" y="180" as="targetPoint" />
          </mxGeometry>
        </mxCell>
        <mxCell id="R6XHl-7MchF-aiPk_n8q-22" value="Participates" style="edgeLabel;html=1;align=center;verticalAlign=middle;resizable=0;points=[];labelBackgroundColor=default;rounded=1;" parent="R6XHl-7MchF-aiPk_n8q-10" vertex="1" connectable="0">
          <mxGeometry x="0.115" y="-3" relative="1" as="geometry">
            <mxPoint x="3" as="offset" />
          </mxGeometry>
        </mxCell>
        <mxCell id="NEUqfqdZqB4C4I4E-5uW-1" value="&lt;b&gt;Volunteer&lt;/b&gt;" style="rounded=1;arcSize=10;whiteSpace=wrap;html=1;align=center;labelBackgroundColor=none;" parent="1" vertex="1">
          <mxGeometry x="540" y="190" width="100" height="40" as="geometry" />
        </mxCell>
        <mxCell id="NEUqfqdZqB4C4I4E-5uW-4" value="" style="fontSize=12;html=1;endArrow=ERoneToMany;rounded=1;exitX=0.5;exitY=0;exitDx=0;exitDy=0;entryX=1;entryY=0.5;entryDx=0;entryDy=0;startArrow=ERoneToMany;startFill=0;edgeStyle=orthogonalEdgeStyle;endFill=0;labelBackgroundColor=none;fontColor=default;" parent="1" source="NEUqfqdZqB4C4I4E-5uW-1" target="R6XHl-7MchF-aiPk_n8q-4" edge="1">
          <mxGeometry width="100" height="100" relative="1" as="geometry">
            <mxPoint x="600" y="70" as="sourcePoint" />
            <mxPoint x="675" y="160" as="targetPoint" />
          </mxGeometry>
        </mxCell>
        <mxCell id="nR-qRGFOX-PRM2VJ_URm-2" value="Volunteer" style="edgeLabel;html=1;align=center;verticalAlign=middle;resizable=0;points=[];labelBackgroundColor=default;rounded=1;" parent="NEUqfqdZqB4C4I4E-5uW-4" vertex="1" connectable="0">
          <mxGeometry x="-0.6086" y="2" relative="1" as="geometry">
            <mxPoint x="2" y="-3" as="offset" />
          </mxGeometry>
        </mxCell>
        <mxCell id="NEUqfqdZqB4C4I4E-5uW-9" value="" style="fontSize=12;html=1;endArrow=ERoneToMany;rounded=1;startArrow=ERmandOne;startFill=0;exitX=0;exitY=0.5;exitDx=0;exitDy=0;endFill=0;entryX=0.5;entryY=0;entryDx=0;entryDy=0;edgeStyle=orthogonalEdgeStyle;labelBackgroundColor=none;fontColor=default;" parent="1" source="R6XHl-7MchF-aiPk_n8q-4" target="R6XHl-7MchF-aiPk_n8q-3" edge="1">
          <mxGeometry width="100" height="100" relative="1" as="geometry">
            <mxPoint x="350" y="90.16" as="sourcePoint" />
            <mxPoint x="240" y="160" as="targetPoint" />
          </mxGeometry>
        </mxCell>
        <mxCell id="NEUqfqdZqB4C4I4E-5uW-10" value="Includes" style="edgeLabel;html=1;align=center;verticalAlign=middle;resizable=0;points=[];labelBackgroundColor=default;rounded=1;" parent="NEUqfqdZqB4C4I4E-5uW-9" vertex="1" connectable="0">
          <mxGeometry x="-0.0597" y="-2" relative="1" as="geometry">
            <mxPoint x="-22" y="32" as="offset" />
          </mxGeometry>
        </mxCell>
      </root>
    </mxGraphModel>
  </diagram>
</mxfile>
